<svg xmlns="http://www.w3.org/2000/svg" xmlns:xlink="http://www.w3.org/1999/xlink" width="378" zoomAndPan="magnify" viewBox="0 0 283.5 283.500005" height="378" preserveAspectRatio="xMidYMid meet" version="1.0"><defs><clipPath id="d72680e6e3"><path d="M 7.222656 160 L 246 160 L 246 274.605469 L 7.222656 274.605469 Z M 7.222656 160 " clip-rule="nonzero"/></clipPath><clipPath id="79f894817a"><path d="M 63 8.042969 L 190 8.042969 L 190 135 L 63 135 Z M 63 8.042969 " clip-rule="nonzero"/></clipPath><clipPath id="fa1f201199"><rect x="0" width="253" y="0" height="282"/></clipPath></defs><g transform="matrix(1, 0, 0, 1, 15, 0.000000000000005218)"><g clip-path="url(#fa1f201199)"><g clip-path="url(#d72680e6e3)"><path fill="#5b0772" d="M 163.964844 160.992188 L 89.03125 160.992188 C 87.695312 160.992188 86.355469 161.027344 85.019531 161.09375 C 83.683594 161.160156 82.347656 161.257812 81.015625 161.390625 C 79.683594 161.523438 78.355469 161.6875 77.03125 161.886719 C 75.707031 162.085938 74.390625 162.3125 73.078125 162.574219 C 71.765625 162.839844 70.460938 163.132812 69.160156 163.457031 C 67.863281 163.785156 66.574219 164.140625 65.292969 164.53125 C 64.011719 164.921875 62.742188 165.339844 61.480469 165.792969 C 60.222656 166.246094 58.972656 166.726562 57.738281 167.238281 C 56.5 167.753906 55.277344 168.296875 54.070312 168.867188 C 52.859375 169.441406 51.664062 170.042969 50.484375 170.675781 C 49.304688 171.304688 48.140625 171.964844 46.992188 172.65625 C 45.84375 173.34375 44.714844 174.058594 43.601562 174.804688 C 42.488281 175.546875 41.394531 176.316406 40.320312 177.117188 C 39.242188 177.914062 38.1875 178.738281 37.15625 179.585938 C 36.121094 180.433594 35.105469 181.308594 34.117188 182.207031 C 33.125 183.105469 32.15625 184.03125 31.207031 184.976562 C 30.261719 185.921875 29.339844 186.890625 28.441406 187.882812 C 27.539062 188.875 26.667969 189.886719 25.816406 190.921875 C 24.96875 191.957031 24.144531 193.011719 23.347656 194.085938 C 22.550781 195.164062 21.777344 196.257812 21.035156 197.367188 C 20.292969 198.480469 19.574219 199.613281 18.886719 200.761719 C 18.199219 201.90625 17.539062 203.070312 16.90625 204.253906 C 16.273438 205.433594 15.671875 206.628906 15.101562 207.835938 C 14.527344 209.046875 13.984375 210.269531 13.472656 211.507812 C 12.957031 212.742188 12.476562 213.992188 12.023438 215.25 C 11.574219 216.511719 11.152344 217.78125 10.761719 219.0625 C 10.375 220.34375 10.015625 221.632812 9.691406 222.929688 C 9.363281 224.226562 9.070312 225.535156 8.808594 226.847656 C 8.546875 228.160156 8.316406 229.476562 8.117188 230.800781 C 7.921875 232.125 7.753906 233.453125 7.625 234.785156 C 7.492188 236.117188 7.390625 237.449219 7.324219 238.789062 C 7.257812 240.125 7.222656 241.460938 7.222656 242.800781 L 7.222656 267.792969 C 7.222656 268.253906 7.265625 268.710938 7.355469 269.160156 C 7.445312 269.613281 7.578125 270.050781 7.757812 270.476562 C 7.933594 270.902344 8.148438 271.308594 8.402344 271.691406 C 8.660156 272.074219 8.949219 272.429688 9.277344 272.753906 C 9.601562 273.078125 9.957031 273.371094 10.339844 273.625 C 10.722656 273.882812 11.128906 274.097656 11.554688 274.273438 C 11.980469 274.449219 12.417969 274.585938 12.871094 274.675781 C 13.320312 274.765625 13.777344 274.808594 14.238281 274.808594 L 238.761719 274.808594 C 239.21875 274.808594 239.675781 274.765625 240.128906 274.675781 C 240.582031 274.585938 241.019531 274.449219 241.445312 274.273438 C 241.871094 274.097656 242.273438 273.882812 242.65625 273.625 C 243.042969 273.371094 243.394531 273.078125 243.722656 272.753906 C 244.046875 272.429688 244.335938 272.074219 244.59375 271.691406 C 244.851562 271.308594 245.066406 270.902344 245.242188 270.476562 C 245.417969 270.050781 245.550781 269.613281 245.640625 269.160156 C 245.730469 268.710938 245.777344 268.253906 245.777344 267.792969 L 245.777344 242.800781 C 245.773438 241.460938 245.742188 240.125 245.671875 238.789062 C 245.605469 237.449219 245.507812 236.117188 245.375 234.785156 C 245.242188 233.453125 245.078125 232.125 244.878906 230.800781 C 244.683594 229.476562 244.453125 228.160156 244.191406 226.847656 C 243.929688 225.535156 243.632812 224.226562 243.308594 222.929688 C 242.980469 221.632812 242.625 220.34375 242.234375 219.0625 C 241.84375 217.78125 241.425781 216.511719 240.972656 215.25 C 240.519531 213.992188 240.039062 212.742188 239.527344 211.507812 C 239.011719 210.269531 238.46875 209.046875 237.898438 207.835938 C 237.324219 206.628906 236.722656 205.433594 236.089844 204.253906 C 235.460938 203.070312 234.800781 201.90625 234.113281 200.761719 C 233.421875 199.613281 232.707031 198.480469 231.964844 197.367188 C 231.21875 196.257812 230.449219 195.164062 229.652344 194.085938 C 228.851562 193.011719 228.03125 191.957031 227.179688 190.921875 C 226.332031 189.886719 225.457031 188.875 224.558594 187.882812 C 223.660156 186.890625 222.738281 185.921875 221.789062 184.976562 C 220.84375 184.03125 219.875 183.105469 218.882812 182.207031 C 217.890625 181.308594 216.878906 180.433594 215.84375 179.585938 C 214.808594 178.738281 213.753906 177.914062 212.679688 177.117188 C 211.605469 176.316406 210.511719 175.546875 209.398438 174.804688 C 208.285156 174.058594 207.15625 173.34375 206.007812 172.65625 C 204.859375 171.964844 203.695312 171.304688 202.515625 170.675781 C 201.335938 170.042969 200.140625 169.441406 198.929688 168.867188 C 197.71875 168.296875 196.496094 167.753906 195.261719 167.238281 C 194.023438 166.726562 192.777344 166.246094 191.515625 165.792969 C 190.257812 165.339844 188.984375 164.921875 187.703125 164.53125 C 186.425781 164.140625 185.136719 163.785156 183.835938 163.457031 C 182.539062 163.132812 181.234375 162.839844 179.921875 162.574219 C 178.609375 162.3125 177.289062 162.085938 175.964844 161.886719 C 174.640625 161.6875 173.3125 161.523438 171.980469 161.390625 C 170.648438 161.257812 169.316406 161.160156 167.980469 161.09375 C 166.640625 161.027344 165.304688 160.992188 163.964844 160.992188 Z M 163.964844 160.992188 " fill-opacity="1" fill-rule="nonzero"/></g><g clip-path="url(#79f894817a)"><path fill="#5b0772" d="M 189.644531 71.335938 C 189.644531 73.402344 189.542969 75.46875 189.339844 77.523438 C 189.140625 79.582031 188.835938 81.625 188.433594 83.65625 C 188.027344 85.683594 187.527344 87.6875 186.925781 89.667969 C 186.328125 91.644531 185.628906 93.589844 184.839844 95.5 C 184.046875 97.410156 183.164062 99.277344 182.191406 101.101562 C 181.214844 102.925781 180.152344 104.699219 179.003906 106.417969 C 177.855469 108.136719 176.625 109.796875 175.3125 111.394531 C 174 112.996094 172.613281 114.523438 171.152344 115.988281 C 169.6875 117.449219 168.15625 118.835938 166.558594 120.148438 C 164.960938 121.460938 163.300781 122.691406 161.582031 123.839844 C 159.863281 124.988281 158.089844 126.050781 156.265625 127.027344 C 154.441406 128 152.574219 128.882812 150.664062 129.675781 C 148.753906 130.46875 146.808594 131.164062 144.828125 131.761719 C 142.851562 132.363281 140.847656 132.867188 138.816406 133.269531 C 136.789062 133.671875 134.746094 133.976562 132.6875 134.179688 C 130.628906 134.382812 128.566406 134.484375 126.5 134.484375 C 124.429688 134.484375 122.367188 134.382812 120.308594 134.179688 C 118.25 133.976562 116.207031 133.671875 114.179688 133.269531 C 112.152344 132.867188 110.148438 132.363281 108.167969 131.761719 C 106.1875 131.164062 104.246094 130.46875 102.332031 129.675781 C 100.421875 128.882812 98.554688 128 96.730469 127.027344 C 94.90625 126.050781 93.136719 124.988281 91.417969 123.839844 C 89.695312 122.691406 88.039062 121.460938 86.4375 120.148438 C 84.839844 118.835938 83.308594 117.449219 81.847656 115.988281 C 80.386719 114.523438 78.996094 112.996094 77.6875 111.394531 C 76.375 109.796875 75.144531 108.136719 73.996094 106.417969 C 72.84375 104.699219 71.785156 102.925781 70.808594 101.101562 C 69.832031 99.277344 68.949219 97.410156 68.160156 95.5 C 67.367188 93.589844 66.671875 91.644531 66.070312 89.667969 C 65.472656 87.6875 64.96875 85.683594 64.566406 83.65625 C 64.164062 81.625 63.859375 79.582031 63.65625 77.523438 C 63.453125 75.46875 63.351562 73.402344 63.351562 71.335938 C 63.351562 69.269531 63.453125 67.203125 63.65625 65.144531 C 63.859375 63.089844 64.164062 61.046875 64.566406 59.015625 C 64.96875 56.988281 65.472656 54.984375 66.070312 53.003906 C 66.671875 51.027344 67.367188 49.082031 68.160156 47.171875 C 68.949219 45.261719 69.832031 43.394531 70.808594 41.570312 C 71.785156 39.746094 72.84375 37.972656 73.996094 36.253906 C 75.144531 34.535156 76.375 32.875 77.6875 31.277344 C 78.996094 29.675781 80.386719 28.148438 81.847656 26.683594 C 83.308594 25.222656 84.839844 23.835938 86.4375 22.523438 C 88.039062 21.210938 89.695312 19.980469 91.417969 18.832031 C 93.136719 17.683594 94.90625 16.621094 96.730469 15.644531 C 98.554688 14.671875 100.421875 13.789062 102.332031 12.996094 C 104.246094 12.203125 106.1875 11.507812 108.167969 10.910156 C 110.148438 10.308594 112.152344 9.804688 114.179688 9.402344 C 116.207031 9 118.25 8.695312 120.308594 8.492188 C 122.367188 8.289062 124.429688 8.1875 126.5 8.1875 C 128.566406 8.1875 130.628906 8.289062 132.6875 8.492188 C 134.746094 8.695312 136.789062 9 138.816406 9.402344 C 140.847656 9.804688 142.851562 10.308594 144.828125 10.910156 C 146.808594 11.507812 148.753906 12.203125 150.664062 12.996094 C 152.574219 13.789062 154.441406 14.671875 156.265625 15.644531 C 158.089844 16.621094 159.863281 17.683594 161.582031 18.832031 C 163.300781 19.980469 164.960938 21.210938 166.558594 22.523438 C 168.15625 23.835938 169.6875 25.222656 171.152344 26.683594 C 172.613281 28.148438 174 29.675781 175.3125 31.277344 C 176.625 32.875 177.855469 34.535156 179.003906 36.253906 C 180.152344 37.972656 181.214844 39.746094 182.191406 41.570312 C 183.164062 43.394531 184.046875 45.261719 184.839844 47.171875 C 185.628906 49.082031 186.328125 51.027344 186.925781 53.003906 C 187.527344 54.984375 188.027344 56.988281 188.433594 59.015625 C 188.835938 61.046875 189.140625 63.089844 189.339844 65.144531 C 189.542969 67.203125 189.644531 69.269531 189.644531 71.335938 Z M 189.644531 71.335938 " fill-opacity="1" fill-rule="nonzero"/></g></g></g></svg>