<svg xmlns="http://www.w3.org/2000/svg" xmlns:xlink="http://www.w3.org/1999/xlink" width="378" zoomAndPan="magnify" viewBox="0 0 282.96 283.499989" height="378" preserveAspectRatio="xMidYMid meet" version="1.0"><defs><clipPath id="ee0ca6b22f"><path d="M 4.535156 9.199219 L 279 9.199219 L 279 273.765625 L 4.535156 273.765625 Z M 4.535156 9.199219 " clip-rule="nonzero"/></clipPath><clipPath id="64d8617661"><path d="M 12.023438 9.199219 L 271.402344 9.199219 C 273.386719 9.199219 275.289062 9.988281 276.695312 11.394531 C 278.097656 12.796875 278.886719 14.699219 278.886719 16.6875 L 278.886719 266.277344 C 278.886719 268.265625 278.097656 270.167969 276.695312 271.574219 C 275.289062 272.976562 273.386719 273.765625 271.402344 273.765625 L 12.023438 273.765625 C 10.039062 273.765625 8.132812 272.976562 6.730469 271.574219 C 5.324219 270.167969 4.535156 268.265625 4.535156 266.277344 L 4.535156 16.6875 C 4.535156 14.699219 5.324219 12.796875 6.730469 11.394531 C 8.132812 9.988281 10.039062 9.199219 12.023438 9.199219 Z M 12.023438 9.199219 " clip-rule="nonzero"/></clipPath><clipPath id="60c2e20096"><path d="M 0.535156 0.199219 L 275 0.199219 L 275 264.765625 L 0.535156 264.765625 Z M 0.535156 0.199219 " clip-rule="nonzero"/></clipPath><clipPath id="60f15a4da9"><path d="M 8.023438 0.199219 L 267.402344 0.199219 C 269.386719 0.199219 271.289062 0.988281 272.695312 2.394531 C 274.097656 3.796875 274.886719 5.699219 274.886719 7.6875 L 274.886719 257.277344 C 274.886719 259.265625 274.097656 261.167969 272.695312 262.574219 C 271.289062 263.976562 269.386719 264.765625 267.402344 264.765625 L 8.023438 264.765625 C 6.039062 264.765625 4.132812 263.976562 2.730469 262.574219 C 1.324219 261.167969 0.535156 259.265625 0.535156 257.277344 L 0.535156 7.6875 C 0.535156 5.699219 1.324219 3.796875 2.730469 2.394531 C 4.132812 0.988281 6.039062 0.199219 8.023438 0.199219 Z M 8.023438 0.199219 " clip-rule="nonzero"/></clipPath><clipPath id="ec04e86d91"><rect x="0" width="275" y="0" height="265"/></clipPath><clipPath id="156d7981cc"><path d="M 0.882812 134 L 80.714844 134 L 80.714844 201.675781 L 0.882812 201.675781 Z M 0.882812 134 " clip-rule="nonzero"/></clipPath><clipPath id="e7507ec814"><path d="M 67.597656 0.496094 L 214.460938 0.496094 L 214.460938 147.601562 L 67.597656 147.601562 Z M 67.597656 0.496094 " clip-rule="nonzero"/></clipPath><clipPath id="2ce5a9a624"><path d="M 150 144 L 181 144 L 181 212.722656 L 150 212.722656 Z M 150 144 " clip-rule="nonzero"/></clipPath><clipPath id="4f4c6c9726"><rect x="0" width="215" y="0" height="213"/></clipPath></defs><g clip-path="url(#ee0ca6b22f)"><g clip-path="url(#64d8617661)"><g transform="matrix(1, 0, 0, 1, 4, 9)"><g clip-path="url(#ec04e86d91)"><g clip-path="url(#60c2e20096)"><g clip-path="url(#60f15a4da9)"><path fill="#5b0772" d="M 0.535156 0.199219 L 274.402344 0.199219 L 274.402344 264.765625 L 0.535156 264.765625 Z M 0.535156 0.199219 " fill-opacity="1" fill-rule="nonzero"/></g></g></g></g></g></g><g transform="matrix(1, 0, 0, 1, 34, 35)"><g clip-path="url(#4f4c6c9726)"><g clip-path="url(#156d7981cc)"><path fill="#eba4e6" d="M 68.058594 137.273438 C 65.550781 134.769531 62.011719 133.601562 58.507812 134.125 C 50.523438 135.316406 36.523438 140.484375 27.269531 161.1875 C 15.664062 187.152344 3.617188 196.035156 1.019531 198.640625 C 0.746094 198.914062 0.90625 199.378906 1.285156 199.433594 C 6.386719 200.144531 33.464844 204.984375 55.699219 197.742188 C 74.886719 191.488281 79.46875 166.652344 80.566406 155.542969 C 80.890625 152.21875 79.707031 148.925781 77.34375 146.5625 L 68.058594 137.273438 " fill-opacity="1" fill-rule="nonzero"/></g><g clip-path="url(#e7507ec814)"><path fill="#eba4e6" d="M 212.84375 2.109375 C 211.792969 1.058594 210.414062 0.515625 209.03125 0.496094 C 207.644531 0.472656 206.253906 0.972656 205.167969 1.992188 L 171.832031 29.601562 C 146.0625 50.945312 120.238281 72.460938 97.304688 96.824219 L 67.820312 128.140625 C 67.59375 128.386719 67.710938 128.785156 68.035156 128.859375 C 70.070312 129.320312 71.960938 130.34375 73.472656 131.859375 L 82.761719 141.144531 C 84.402344 142.785156 85.476562 144.875 85.867188 147.113281 C 85.925781 147.449219 86.339844 147.582031 86.589844 147.347656 L 118.132812 117.652344 C 142.496094 94.714844 164.011719 68.894531 185.351562 43.125 L 212.960938 9.789062 C 215.003906 7.617188 214.953125 4.21875 212.84375 2.109375 " fill-opacity="1" fill-rule="nonzero"/></g><path fill="#eba4e6" d="M 140.773438 202.792969 C 139.3125 202.792969 138.339844 202.304688 137.367188 201.332031 L 117.886719 181.851562 C 115.9375 179.902344 115.9375 176.980469 117.886719 175.035156 L 137.367188 155.554688 C 139.3125 153.605469 142.234375 153.605469 144.183594 155.554688 C 146.132812 157.5 146.132812 160.421875 144.183594 162.371094 L 128.113281 178.441406 L 144.183594 194.511719 C 146.132812 196.460938 146.132812 199.382812 144.183594 201.332031 C 143.210938 202.304688 142.234375 202.792969 140.773438 202.792969 Z M 140.773438 202.792969 " fill-opacity="1" fill-rule="nonzero"/><path fill="#eba4e6" d="M 189.476562 202.792969 C 188.015625 202.792969 187.039062 202.304688 186.066406 201.332031 C 184.117188 199.382812 184.117188 196.460938 186.066406 194.511719 L 202.136719 178.441406 L 186.066406 162.371094 C 184.117188 160.421875 184.117188 157.5 186.066406 155.554688 C 188.015625 153.605469 190.9375 153.605469 192.882812 155.554688 L 212.363281 175.035156 C 214.3125 176.980469 214.3125 179.902344 212.363281 181.851562 L 192.882812 201.332031 C 191.910156 202.304688 190.9375 202.792969 189.476562 202.792969 Z M 189.476562 202.792969 " fill-opacity="1" fill-rule="nonzero"/><g clip-path="url(#2ce5a9a624)"><path fill="#eba4e6" d="M 155.386719 212.53125 C 154.898438 212.53125 154.410156 212.53125 153.925781 212.046875 C 151.488281 211.070312 150.027344 208.636719 151 205.714844 L 170.480469 147.273438 C 171.457031 144.839844 173.890625 143.378906 176.8125 144.351562 C 179.246094 145.328125 180.707031 147.761719 179.734375 150.683594 L 160.253906 209.125 C 159.28125 211.070312 157.332031 212.53125 155.386719 212.53125 Z M 155.386719 212.53125 " fill-opacity="1" fill-rule="nonzero"/></g></g></g></svg>